%TF.GenerationSoftware,KiCad,Pcbnew,5.1.9-73d0e3b20d~88~ubuntu20.04.1*%
%TF.CreationDate,2021-02-23T12:37:05-08:00*%
%TF.ProjectId,cover_50x50,636f7665-725f-4353-9078-35302e6b6963,rev?*%
%TF.SameCoordinates,Original*%
%TF.FileFunction,Legend,Top*%
%TF.FilePolarity,Positive*%
%FSLAX46Y46*%
G04 Gerber Fmt 4.6, Leading zero omitted, Abs format (unit mm)*
G04 Created by KiCad (PCBNEW 5.1.9-73d0e3b20d~88~ubuntu20.04.1) date 2021-02-23 12:37:05*
%MOMM*%
%LPD*%
G01*
G04 APERTURE LIST*
%ADD10C,0.300000*%
%ADD11C,0.250000*%
%ADD12C,0.120000*%
G04 APERTURE END LIST*
D10*
X194900000Y-62878571D02*
X195757142Y-62878571D01*
X195328571Y-64378571D02*
X195328571Y-62878571D01*
X196471428Y-64378571D02*
X196328571Y-64307142D01*
X196257142Y-64235714D01*
X196185714Y-64092857D01*
X196185714Y-63664285D01*
X196257142Y-63521428D01*
X196328571Y-63450000D01*
X196471428Y-63378571D01*
X196685714Y-63378571D01*
X196828571Y-63450000D01*
X196900000Y-63521428D01*
X196971428Y-63664285D01*
X196971428Y-64092857D01*
X196900000Y-64235714D01*
X196828571Y-64307142D01*
X196685714Y-64378571D01*
X196471428Y-64378571D01*
X197614285Y-63378571D02*
X197614285Y-64878571D01*
X197614285Y-63450000D02*
X197757142Y-63378571D01*
X198042857Y-63378571D01*
X198185714Y-63450000D01*
X198257142Y-63521428D01*
X198328571Y-63664285D01*
X198328571Y-64092857D01*
X198257142Y-64235714D01*
X198185714Y-64307142D01*
X198042857Y-64378571D01*
X197757142Y-64378571D01*
X197614285Y-64307142D01*
X200114285Y-64378571D02*
X200114285Y-62878571D01*
X200685714Y-62878571D01*
X200828571Y-62950000D01*
X200900000Y-63021428D01*
X200971428Y-63164285D01*
X200971428Y-63378571D01*
X200900000Y-63521428D01*
X200828571Y-63592857D01*
X200685714Y-63664285D01*
X200114285Y-63664285D01*
X201828571Y-64378571D02*
X201685714Y-64307142D01*
X201614285Y-64164285D01*
X201614285Y-62878571D01*
X203042857Y-64378571D02*
X203042857Y-63592857D01*
X202971428Y-63450000D01*
X202828571Y-63378571D01*
X202542857Y-63378571D01*
X202400000Y-63450000D01*
X203042857Y-64307142D02*
X202900000Y-64378571D01*
X202542857Y-64378571D01*
X202400000Y-64307142D01*
X202328571Y-64164285D01*
X202328571Y-64021428D01*
X202400000Y-63878571D01*
X202542857Y-63807142D01*
X202900000Y-63807142D01*
X203042857Y-63735714D01*
X203542857Y-63378571D02*
X204114285Y-63378571D01*
X203757142Y-62878571D02*
X203757142Y-64164285D01*
X203828571Y-64307142D01*
X203971428Y-64378571D01*
X204114285Y-64378571D01*
X205185714Y-64307142D02*
X205042857Y-64378571D01*
X204757142Y-64378571D01*
X204614285Y-64307142D01*
X204542857Y-64164285D01*
X204542857Y-63592857D01*
X204614285Y-63450000D01*
X204757142Y-63378571D01*
X205042857Y-63378571D01*
X205185714Y-63450000D01*
X205257142Y-63592857D01*
X205257142Y-63735714D01*
X204542857Y-63878571D01*
D11*
%TO.C,J1*%
X190900000Y-57200000D02*
X190900000Y-53600000D01*
D12*
X191500000Y-59600000D02*
X190300000Y-59600000D01*
X190300000Y-59600000D02*
X190300000Y-57200000D01*
X190300000Y-57200000D02*
X191500000Y-57200000D01*
X191500000Y-57200000D02*
X191500000Y-59600000D01*
X191500000Y-59600000D02*
X191500000Y-59600000D01*
D11*
X190900000Y-59600000D02*
X190900000Y-61500000D01*
%TD*%
M02*
