%TF.GenerationSoftware,KiCad,Pcbnew,5.1.9-73d0e3b20d~88~ubuntu20.04.1*%
%TF.CreationDate,2021-02-23T12:39:05-08:00*%
%TF.ProjectId,frame_50x50,6672616d-655f-4353-9078-35302e6b6963,rev?*%
%TF.SameCoordinates,Original*%
%TF.FileFunction,Profile,NP*%
%FSLAX46Y46*%
G04 Gerber Fmt 4.6, Leading zero omitted, Abs format (unit mm)*
G04 Created by KiCad (PCBNEW 5.1.9-73d0e3b20d~88~ubuntu20.04.1) date 2021-02-23 12:39:05*
%MOMM*%
%LPD*%
G01*
G04 APERTURE LIST*
%TA.AperFunction,Profile*%
%ADD10C,0.200000*%
%TD*%
G04 APERTURE END LIST*
D10*
X160000000Y-54000001D02*
G75*
G02*
X160500000Y-54500001I0J-500000D01*
G01*
X150499999Y-98611737D02*
X150500000Y-95500001D01*
X151194131Y-99305869D02*
X150499999Y-98611737D01*
X149805869Y-48805870D02*
G75*
G02*
X151194131Y-50194132I694131J-694131D01*
G01*
X100000000Y-95500000D02*
X100000000Y-98611737D01*
X175250000Y-37500000D02*
X175250000Y-112000000D01*
X101388263Y-100000000D02*
X149111736Y-100000000D01*
X100694131Y-100694131D02*
X101388263Y-100000000D01*
X99305869Y-50194132D02*
X100000001Y-50888264D01*
X150500000Y-54000000D02*
X150500000Y-50888264D01*
X75250000Y-111999999D02*
X75250000Y-37500000D01*
X160499999Y-95000001D02*
X160500000Y-54500001D01*
X151194130Y-99305869D02*
G75*
G02*
X149805868Y-100694131I-694131J-694131D01*
G01*
X90500000Y-95500000D02*
G75*
G02*
X90000000Y-95000000I0J500000D01*
G01*
X150500000Y-95500001D02*
X159999999Y-95500001D01*
X101388263Y-49500000D02*
X100694131Y-48805869D01*
X99305871Y-50194131D02*
G75*
G02*
X100694131Y-48805869I694130J694131D01*
G01*
X100000000Y-98611737D02*
X99305869Y-99305869D01*
X175250000Y-112000000D02*
X75250000Y-111999999D01*
X90000000Y-54500000D02*
G75*
G02*
X90500000Y-54000000I500000J0D01*
G01*
X160000000Y-54000001D02*
X150500000Y-54000000D01*
X149805868Y-48805869D02*
X149111736Y-49500001D01*
X149111736Y-100000000D02*
X149805868Y-100694131D01*
X75250000Y-37500000D02*
X175250000Y-37500000D01*
X160499999Y-95000001D02*
G75*
G02*
X159999999Y-95500001I-500000J0D01*
G01*
X90500000Y-95500000D02*
X100000000Y-95500000D01*
X90000000Y-54500000D02*
X90000000Y-95000000D01*
X100000001Y-50888264D02*
X100000000Y-54000001D01*
X100000000Y-54000001D02*
X90500000Y-54000000D01*
X149111736Y-49500001D02*
X101388263Y-49500000D01*
X150500000Y-50888264D02*
X151194131Y-50194132D01*
X100694131Y-100694131D02*
G75*
G02*
X99305869Y-99305869I-694131J694131D01*
G01*
M02*
